<?xml version="1.0" encoding="utf-8"?>
<svg id="Layer_1" data-name="Layer 1" viewBox="0 -24.295 2036 608.105" xmlns="http://www.w3.org/2000/svg">
  <defs>
    <style>.cls-1{fill:#820000;}.cls-2{fill:#ec7a08;}.cls-3{fill:#0088ce;}.cls-4{fill:#3f9c35;}.cls-5{fill:#c00;}.cls-6{fill:#f0ab00;}.cls-7{fill:#00b9e4;}.cls-8{fill:#92d400;}.cls-9{fill:#fff;}</style>
  </defs>
  <title>RHD_</title>
  <rect width="2036" height="608.105" y="-24.295"/>
  <g transform="matrix(1, 0, 0, 1, -0.024943, -221.12352)">
    <rect class="cls-1" x="189.84" y="350.86" width="48.17" height="48.17"/>
    <rect class="cls-2" x="238.01" y="434.65" width="96.33" height="48.17"/>
    <rect class="cls-3" x="189.84" y="602.15" width="96.33" height="48.17"/>
    <rect class="cls-4" x="141.67" y="518.45" width="48.17" height="48.17"/>
    <rect class="cls-1" x="273.72" y="350.86" width="96.33" height="48.17"/>
    <rect class="cls-2" x="370.05" y="434.65" width="48.17" height="48.17"/>
    <rect class="cls-3" x="321.88" y="602.15" width="48.17" height="48.17"/>
    <rect class="cls-4" x="225.55" y="518.45" width="96.33" height="48.17"/>
    <rect class="cls-5" x="370.05" y="350.86" width="144.5" height="48.17"/>
    <rect class="cls-6" x="418.21" y="434.65" width="144.5" height="48.17"/>
    <rect class="cls-7" x="370.05" y="602.15" width="96.33" height="48.17"/>
    <rect class="cls-8" x="321.88" y="518.45" width="192.66" height="48.17"/>
    <path class="cls-9" d="M 778.62 607.09 C 774.8 617.197 769.523 625.47 762.79 631.91 C 756.033 638.342 747.886 643.132 738.98 645.91 C 729.459 648.884 719.534 650.359 709.56 650.28 L 671.16 650.28 L 671.16 493.13 L 712.7 493.13 C 722.426 493.034 732.1 494.551 741.33 497.62 C 749.869 500.474 757.631 505.266 764.01 511.62 C 770.709 518.492 775.825 526.744 779 535.8 C 782.593 545.533 784.39 557.137 784.39 570.61 C 784.363 584.83 782.44 596.99 778.62 607.09 Z M 752.69 525 C 743.263 514.373 729.49 509.06 711.37 509.06 L 688.69 509.06 L 688.69 634.36 L 711.82 634.36 C 719.594 634.478 727.332 633.302 734.72 630.88 C 741.305 628.656 747.24 624.844 752 619.78 C 756.787 614.693 760.453 608.143 763 600.13 C 765.547 592.117 766.82 582.497 766.82 571.27 C 766.833 551.09 762.123 535.667 752.69 525 Z"/>
    <path class="cls-9" d="M 818.92 650.32 L 818.92 493.13 L 913.92 493.13 L 913.92 509.07 L 836.44 509.07 L 836.44 558.47 L 881.35 558.47 L 881.35 574.41 L 836.44 574.41 L 836.44 634.41 L 917.28 634.41 L 917.28 650.35 Z"/>
    <path class="cls-9" d="M 1012.94 650.32 L 993.63 650.32 L 940.19 493.13 L 958.6 493.13 L 993.6 600.69 C 994.347 603.083 995.207 605.777 996.18 608.77 C 997.153 611.763 998.09 614.72 998.99 617.64 C 999.89 620.56 1000.71 623.29 1001.46 625.83 C 1002.21 628.37 1002.81 630.33 1003.26 631.67 C 1003.707 630.337 1004.303 628.337 1005.05 625.67 C 1005.797 623.003 1006.657 620.197 1007.63 617.25 C 1008.603 614.25 1009.577 611.217 1010.55 608.15 C 1011.55 605.09 1012.38 602.42 1013.13 600.15 L 1048.38 493.04 L 1066.38 493.04 Z"/>
    <path class="cls-9" d="M 1098.94 650.32 L 1098.94 493.13 L 1193.94 493.13 L 1193.94 509.07 L 1116.47 509.07 L 1116.47 558.47 L 1161.38 558.47 L 1161.38 574.41 L 1116.47 574.41 L 1116.47 634.41 L 1197.31 634.41 L 1197.31 650.35 Z"/>
    <path class="cls-9" d="M 1230.76 650.32 L 1230.76 493.13 L 1248.28 493.13 L 1248.28 634.38 L 1326 634.38 L 1326 650.32 Z"/>
    <path class="cls-9" d="M 1473.28 604.18 C 1470.465 613.507 1465.934 622.226 1459.92 629.89 C 1454.308 636.952 1447.219 642.699 1439.15 646.73 C 1422.292 654.772 1402.711 654.813 1385.82 646.84 C 1377.806 642.869 1370.783 637.153 1365.27 630.11 C 1359.343 622.464 1354.887 613.783 1352.13 604.51 C 1348.964 593.951 1347.413 582.973 1347.53 571.95 C 1347.418 560.883 1349.007 549.865 1352.24 539.28 C 1355.047 529.972 1359.538 521.257 1365.49 513.57 C 1371.042 506.494 1378.099 500.741 1386.15 496.73 C 1403.006 488.68 1422.588 488.636 1439.48 496.61 C 1447.485 500.586 1454.498 506.306 1460 513.35 C 1465.937 521.006 1470.427 529.682 1473.25 538.95 C 1476.505 549.49 1478.108 560.47 1478 571.5 C 1478.113 582.571 1476.521 593.594 1473.28 604.18 Z M 1456.78 545.12 C 1454.595 537.694 1451.137 530.703 1446.56 524.46 C 1442.521 518.961 1437.304 514.434 1431.29 511.21 C 1425.401 508.133 1418.844 506.553 1412.2 506.61 C 1405.665 506.561 1399.221 508.142 1393.45 511.21 C 1387.569 514.379 1382.468 518.821 1378.52 524.21 C 1374.051 530.39 1370.706 537.309 1368.64 544.65 C 1366.127 553.375 1364.901 562.421 1365 571.5 C 1364.887 580.578 1366.134 589.622 1368.7 598.33 C 1370.891 605.746 1374.327 612.736 1378.86 619 C 1382.833 624.51 1388.011 629.042 1394 632.25 C 1399.887 635.333 1406.444 636.917 1413.09 636.86 C 1419.66 636.9 1426.139 635.316 1431.95 632.25 C 1437.866 629.102 1442.993 624.658 1446.95 619.25 C 1451.418 613.07 1454.762 606.151 1456.83 598.81 C 1459.322 590.088 1460.531 581.05 1460.42 571.98 C 1460.554 562.895 1459.327 553.841 1456.78 545.12 Z"/>
    <path class="cls-9" d="M 1617.56 560.84 C 1615.104 566.673 1611.385 571.888 1606.67 576.11 C 1601.775 580.367 1596.037 583.543 1589.83 585.43 C 1582.848 587.582 1575.576 588.642 1568.27 588.57 L 1530.1 588.57 L 1530.1 650.32 L 1512.58 650.32 L 1512.58 493.13 L 1571.42 493.13 C 1578.146 493.065 1584.844 494.009 1591.29 495.93 C 1597.114 497.673 1602.507 500.62 1607.12 504.58 C 1611.715 508.611 1615.327 513.639 1617.68 519.28 C 1622.81 532.659 1622.767 547.471 1617.56 560.82 Z M 1595.44 517.28 C 1589.753 511.813 1581.52 509.08 1570.74 509.08 L 1530.1 509.08 L 1530.1 572.63 L 1568.5 572.63 C 1592.147 572.63 1603.973 562 1603.98 540.74 C 1603.993 530.56 1601.147 522.74 1595.44 517.28 Z"/>
    <path class="cls-9" d="M 1651.35 650.32 L 1651.35 493.13 L 1746.35 493.13 L 1746.35 509.07 L 1668.88 509.07 L 1668.88 558.47 L 1713.79 558.47 L 1713.79 574.41 L 1668.88 574.41 L 1668.88 634.41 L 1749.72 634.41 L 1749.72 650.35 Z"/>
    <path class="cls-9" d="M 1884.22 567.22 C 1877.48 574.707 1868.5 579.647 1857.28 582.04 L 1891.86 650.32 L 1871.65 650.32 L 1838 583.4 L 1800.73 583.4 L 1800.73 650.31 L 1783.21 650.31 L 1783.21 493.13 L 1845.42 493.13 C 1851.953 493.079 1858.459 493.985 1864.73 495.82 C 1870.408 497.452 1875.686 500.245 1880.23 504.02 C 1884.654 507.797 1888.182 512.511 1890.56 517.82 C 1893.107 523.36 1894.38 529.943 1894.38 537.57 C 1894.347 549.857 1890.96 559.74 1884.22 567.22 Z M 1868.61 516.34 C 1863.143 511.5 1855.17 509.077 1844.69 509.07 L 1800.69 509.07 L 1800.69 567.46 L 1842.46 567.46 C 1854.14 567.46 1862.783 565.037 1868.39 560.19 C 1873.997 555.343 1876.803 548.01 1876.81 538.19 C 1876.81 528.477 1874.077 521.193 1868.61 516.34 Z"/>
    <path class="cls-9" d="M 1370.39 366.24 C 1369.088 369.462 1366.505 371.997 1363.26 373.24 C 1359.812 374.539 1356.008 374.539 1352.56 373.24 C 1349.314 371.999 1346.73 369.463 1345.43 366.24 C 1344.068 362.7 1344.068 358.78 1345.43 355.24 C 1346.73 352.017 1349.314 349.481 1352.56 348.24 C 1356.01 346.949 1359.81 346.949 1363.26 348.24 C 1366.505 349.483 1369.088 352.018 1370.39 355.24 C 1371.752 358.78 1371.752 362.7 1370.39 366.24 Z M 1368.69 355.93 C 1367.563 353.12 1365.327 350.899 1362.51 349.79 C 1359.547 348.645 1356.263 348.645 1353.3 349.79 C 1350.487 350.901 1348.255 353.122 1347.13 355.93 C 1345.928 359.01 1345.928 362.43 1347.13 365.51 C 1347.693 366.905 1348.533 368.17 1349.6 369.23 C 1350.661 370.274 1351.919 371.096 1353.3 371.65 C 1356.263 372.795 1359.547 372.795 1362.51 371.65 C 1365.327 370.541 1367.563 368.32 1368.69 365.51 C 1369.884 362.428 1369.884 359.012 1368.69 355.93 Z M 1362.96 360.08 C 1362.302 360.823 1361.422 361.335 1360.45 361.54 L 1363.78 367.94 L 1361.46 367.94 L 1358.24 361.69 L 1355 361.69 L 1355 367.94 L 1353 367.94 L 1353 353 L 1359.07 353 C 1360.286 352.945 1361.486 353.296 1362.48 354 C 1363.442 354.794 1363.957 356.007 1363.86 357.25 C 1363.935 358.267 1363.629 359.277 1363 360.08 Z M 1361.16 355.4 C 1360.535 354.938 1359.765 354.715 1358.99 354.77 L 1354.99 354.77 L 1354.99 359.77 L 1358.74 359.77 C 1360.833 359.77 1361.88 358.933 1361.88 357.26 C 1361.928 356.566 1361.668 355.886 1361.17 355.4 Z"/>
    <path class="cls-9" d="M 728.51 455.67 L 711.45 420.33 L 699.76 420.33 L 699.76 455.67 L 671.17 455.67 L 671.17 350.86 L 718 350.86 C 742.55 350.86 758.87 360.14 758.87 385 C 758.87 400.72 751.53 410.45 740 415.69 L 761 455.69 Z M 717.28 374.52 L 699.76 374.52 L 699.76 397.43 L 716.83 397.43 C 726.27 397.43 730.01 393.24 730.01 385.75 C 730 379.16 726.41 374.52 717.28 374.52 Z"/>
    <path class="cls-9" d="M 778.35 455.67 L 778.35 350.86 L 858.6 350.86 L 858.6 375.26 L 807.1 375.26 L 807.1 389.19 L 838.1 389.19 L 838.1 413.29 L 807.1 413.29 L 807.1 431.29 L 859.65 431.29 L 859.65 455.7 Z"/>
    <path class="cls-9" d="M 912.19 455.67 L 878.19 455.67 L 878.19 350.86 L 914.87 350.86 C 947.81 350.86 968.77 363.29 968.77 402.66 C 968.77 442.03 949.32 455.67 912.19 455.67 Z M 914.74 375.67 L 907.55 375.67 L 907.55 430.77 L 913.84 430.77 C 931.96 430.77 938.99 423.88 938.99 403.07 C 939 383.8 932.85 375.72 914.74 375.72 Z"/>
    <path class="cls-9" d="M 1098 455.67 L 1098 414.34 L 1065.36 414.34 L 1065.36 455.66 L 1035.71 455.66 L 1035.71 350.86 L 1065.36 350.86 L 1065.36 389 L 1098 389 L 1098 350.86 L 1127.64 350.86 L 1127.64 455.66 Z"/>
    <path class="cls-9" d="M 1216.53 455.67 L 1210.84 437.26 L 1179.4 437.26 L 1173.71 455.67 L 1142.57 455.67 L 1180.57 350.87 L 1209.91 350.87 L 1247.91 455.67 Z M 1201.86 407.31 C 1198.11 393.84 1196.47 388.15 1195.12 381.11 C 1193.77 388.11 1192.12 393.98 1188.38 407.31 L 1186.43 414.19 L 1203.8 414.19 Z"/>
    <path class="cls-9" d="M 1302.77 376.17 L 1302.77 455.67 L 1273.77 455.67 L 1273.77 376.17 L 1244.42 376.17 L 1244.42 350.87 L 1332.16 350.87 L 1332.16 376.17 Z"/>
  </g>
</svg>