<?xml version="1.0" encoding="utf-8"?>
<!-- Generator: Adobe Illustrator 19.1.0, SVG Export Plug-In . SVG Version: 6.00 Build 0)  -->
<svg version="1.1" id="Layer_1" xmlns="http://www.w3.org/2000/svg" xmlns:xlink="http://www.w3.org/1999/xlink" x="0px" y="0px"
	 width="129.7px" height="97px" viewBox="-240 348 129.7 97" style="enable-background:new -240 348 129.7 97;"
	 xml:space="preserve">
<style type="text/css">
	.st0{fill:url(#SVGID_1_);}
	.st1{fill:url(#SVGID_2_);}
	.st2{fill:#FFFFFF;}
	.st3{fill:none;}
	.st4{fill:url(#SVGID_3_);}
	.st5{fill:url(#SVGID_4_);}
	.st6{fill:url(#SVGID_5_);}
	.st7{fill:url(#SVGID_6_);}
	.st8{fill:url(#SVGID_7_);}
	.st9{fill:url(#SVGID_8_);}
	.st10{fill:url(#SVGID_9_);}
	.st11{clip-path:url(#SVGID_11_);}
	.st12{fill:url(#SVGID_12_);}
	.st13{fill:url(#SVGID_13_);}
	.st14{fill:#95BB3D;}
	.st15{fill:url(#SVGID_14_);}
	.st16{fill:#E5ECA7;}
	.st17{fill:#F9FBEB;}
</style>
<linearGradient id="SVGID_1_" gradientUnits="userSpaceOnUse" x1="-148.0452" y1="-1093.1306" x2="-147.0457" y2="-1093.1306" gradientTransform="matrix(94.52 0 0 94.52 13754.5986 103719.4375)">
	<stop  offset="0" style="stop-color:#586382"/>
	<stop  offset="0.48" style="stop-color:#363954"/>
	<stop  offset="1" style="stop-color:#363954"/>
</linearGradient>
<path class="st0" d="M-190.3,349.5c-26.1,0-47.3,21.2-47.2,47.3s21.2,47.3,47.3,47.2c22.4,0,41.8-15.8,46.3-37.8l-2.4,0.8
	c-1.2,0.4-2.4,0.8-3.7,1.1l-1.1,0.3l-1.8,0.5l-2.5,0.7l-0.4,0.1c-1.6,0.4-3.2,0.9-5,1.3c-16.2,4.2-28.9,6-38.2,6h-0.1
	c-5.7,0-10.1-0.7-13.1-1.9c-1.3-0.5-2.4-1.2-3.4-2.1c-0.7-0.7-1.2-1.5-1.5-2.4c-0.1-0.4-0.2-0.8-0.2-1.3c0-1.2,0.4-2.4,1-3.4
	c1.6-2.5,3.7-4.6,6.2-6.3c3.6-2.5,7.5-4.7,11.6-6.4c-0.1-0.9-0.1-1.9,0.1-2.8c1.2-9.6,9.8-21.3,23.8-25.3c3.2-0.9,6.6-1.4,9.9-1.4
	c3.2,0,6.5,0.4,9.6,1.2C-164.1,355.2-176.9,349.5-190.3,349.5"/>
<polygon class="st2" points="-191.8,392.6 -191.8,392.6 -192,392.6 "/>
<path class="st2" d="M-193,392.4L-193,392.4c-0.1,0-0.2-0.1-0.3-0.2l-0.1-0.1l-0.2-0.2l-0.1-0.1l-0.1-0.2l-0.1-0.1l0.1,0.1l0.1,0.2
	l0.1,0.1l0.2,0.2l0.1,0.1C-193.3,392.3-193.2,392.3-193,392.4L-193,392.4c0.1,0,0.3,0.1,0.5,0.1h0.2h-0.2
	C-192.7,392.4-192.9,392.4-193,392.4"/>
<line class="st3" x1="-190.1" y1="393.7" x2="-190.3" y2="393.7"/>
<linearGradient id="SVGID_2_" gradientUnits="userSpaceOnUse" x1="-192.8131" y1="391.2342" x2="-192.7531" y2="391.2342" gradientTransform="matrix(1.000000e-02 0 0 -1.000000e-02 -439.92 31.25)">
	<stop  offset="0" style="stop-color:#4F672F"/>
	<stop  offset="0.21" style="stop-color:#4F672F"/>
	<stop  offset="0.39" style="stop-color:#526B30"/>
	<stop  offset="0.56" style="stop-color:#5C7632"/>
	<stop  offset="0.73" style="stop-color:#6C8A35"/>
	<stop  offset="0.89" style="stop-color:#82A539"/>
	<stop  offset="1" style="stop-color:#95BB3D"/>
</linearGradient>
<polyline class="st1" points="-192.8,391.3 -192.8,391.1 -192.8,391.3 "/>
<linearGradient id="SVGID_3_" gradientUnits="userSpaceOnUse" x1="-145.0198" y1="-1088.8179" x2="-144.0198" y2="-1088.8179" gradientTransform="matrix(43.28 -6.000000e-02 6.000000e-02 43.28 6152.3096 47513.8867)">
	<stop  offset="0" style="stop-color:#4F672F"/>
	<stop  offset="0.21" style="stop-color:#4F672F"/>
	<stop  offset="0.39" style="stop-color:#526B30"/>
	<stop  offset="0.56" style="stop-color:#5C7632"/>
	<stop  offset="0.73" style="stop-color:#6C8A35"/>
	<stop  offset="0.89" style="stop-color:#82A539"/>
	<stop  offset="1" style="stop-color:#95BB3D"/>
</linearGradient>
<path class="st4" d="M-149.7,396.2c-1.9,0.2-4,0.6-6.2,1l3.2,3.6L-149.7,396.2"/>
<polygon class="st2" points="-191.8,392.6 -191.8,392.6 -192,392.6 "/>
<path class="st2" d="M-193,392.4L-193,392.4c-0.1,0-0.2-0.1-0.3-0.2l-0.1-0.1l-0.2-0.2l-0.1-0.1l-0.1-0.2l-0.1-0.1l0.1,0.1l0.1,0.2
	l0.1,0.1l0.2,0.2l0.1,0.1C-193.3,392.3-193.2,392.3-193,392.4L-193,392.4c0.1,0,0.3,0.1,0.5,0.1h0.2h-0.2
	C-192.7,392.4-192.9,392.4-193,392.4"/>
<path class="st2" d="M-193.4,389.3c0.4-2,1.1-4,2-5.9C-192.3,385.4-192.9,387.3-193.4,389.3"/>
<linearGradient id="SVGID_4_" gradientUnits="userSpaceOnUse" x1="-148.0977" y1="-1093.0891" x2="-147.0977" y2="-1093.0891" gradientTransform="matrix(94.51 -1.34 1.34 94.51 15218.8799 103485.1172)">
	<stop  offset="0" style="stop-color:#586382"/>
	<stop  offset="0.48" style="stop-color:#363954"/>
	<stop  offset="1" style="stop-color:#363954"/>
</linearGradient>
<path class="st5" d="M-188.8,380c3.9-5,9.3-8.6,15.4-10.3C-179.5,371.4-184.9,375-188.8,380"/>
<linearGradient id="SVGID_5_" gradientUnits="userSpaceOnUse" x1="-148.0977" y1="-1093.0891" x2="-147.0977" y2="-1093.0891" gradientTransform="matrix(94.51 -1.34 1.34 94.51 15218.8799 103485.1172)">
	<stop  offset="0" style="stop-color:#586382"/>
	<stop  offset="0.48" style="stop-color:#363954"/>
	<stop  offset="1" style="stop-color:#363954"/>
</linearGradient>
<path class="st6" d="M-188.8,380c3.9-5,9.3-8.6,15.4-10.3C-179.5,371.4-184.9,375-188.8,380"/>
<path class="st2" d="M-146,380l0.4-0.2c0.2-0.1,0.5-0.2,0.7-0.3c0.6-0.3,1-0.7,1.4-1.1c0.2-0.2,0.3-0.5,0.4-0.8c0-0.3,0-0.5-0.2-0.7
	c-0.3-0.3-0.6-0.7-0.9-1l-0.3-0.3c-0.2-0.2-0.5-0.5-0.8-0.7l-0.3-0.3c-0.3-0.3-0.7-0.5-1-0.8l-0.2-0.1c-0.4-0.3-0.9-0.6-1.4-0.9
	l-0.4-0.2c-0.4-0.2-0.7-0.4-1.1-0.6l-0.2-0.1C-148.3,374.5-147,377.2-146,380"/>
<path class="st2" d="M-137.7,376L-137.7,376c-3.2-3.9-10.7-9.1-17-10.7c0,0-0.1-0.1-0.1-0.1c-3.2-0.9-6.6-1.3-10-1.3
	c-3.4,0-6.7,0.4-9.9,1.3c-14,4-22.6,15.7-23.8,25.3c-0.2,1.6-0.4,3.1,0.7,4.2c1.7,1.6,3.9,2.4,6.2,2.4c0.6,0,1.2-0.1,1.8-0.2
	c2.8-0.5,5.6-1.4,8.2-2.6c4.4-1.9,9-3.5,13.7-4.8c4.8-1.4,9.6-2.4,14.5-3.2c3-0.4,5.9-1.1,8.7-2l0-0.1l0.8-0.3
	c2.8-1.1,6.5-2.9,7-5.2C-136.4,377.2-136.6,377.4-137.7,376z"/>
<path class="st2" d="M-160.1,368.8c-0.5-0.1-1.1-0.1-1.6-0.2h-0.6h0.6C-161.2,368.7-160.7,368.8-160.1,368.8"/>
<path class="st2" d="M-162.4,368.6c-0.5,0-1,0-1.5-0.1l0,0C-163.4,368.5-162.9,368.6-162.4,368.6"/>
<polyline class="st2" points="-149.7,372 -149.9,371.9 -149.9,371.9 -149.7,372 "/>
<path class="st2" d="M-149.9,371.9L-149.9,371.9l-0.3-0.1L-149.9,371.9"/>
<g>
	<defs>
		<path id="SVGID_10_" d="M-164.7,367L-164.7,367c-15.2,0-28,10.3-30.8,24.1l-0.2,1.1l2.3,0.5l0.2-1.1c2.5-12.6,14.3-22.2,28.5-22.2
			l0,0c8.3-0.1,16.3,3.4,21.9,9.5l0.8,0.9l1.7-1.6l-0.8-0.9C-147.1,370.7-155.7,367-164.7,367"/>
	</defs>
	<clipPath id="SVGID_6_">
		<use xlink:href="#SVGID_10_"  style="overflow:visible;"/>
	</clipPath>
	<g style="clip-path:url(#SVGID_6_);">
		
			<image style="overflow:visible;enable-background:new    ;" width="121" height="59" xlink:href="E2FE226EB27FBAAB.jpg"  transform="matrix(0.4721 0 0 -0.4637 -196.6631 393.6392)">
		</image>
	</g>
</g>
<linearGradient id="SVGID_7_" gradientUnits="userSpaceOnUse" x1="-121.9543" y1="-1055.9056" x2="-120.9543" y2="-1055.9056" gradientTransform="matrix(8.46 0 0 8.46 847.29 9312.4199)">
	<stop  offset="0" style="stop-color:#6B8935"/>
	<stop  offset="1" style="stop-color:#95BB3D"/>
</linearGradient>
<path class="st8" d="M-176.6,375.1c-0.1,0-0.2,0-0.3,0l0,0c-1.1,0.4-2.1,0.9-3,1.6c-2,1.4-3.4,3.5-3.9,5.9c-0.1,0.5,0.2,1.1,0.7,1.2
	c0,0,0.1,0,0.1,0h0.2c0.5,0,1-0.4,1.1-0.9c0.4-1.8,1.5-3.4,3-4.5c0.5-0.4,1.1-0.7,1.7-1l0.5-0.2h0.1l0,0c0.5-0.2,0.8-0.7,0.8-1.2
	l0,0C-175.7,375.5-176.2,375.2-176.6,375.1"/>
<path class="st2" d="M-211,433.1l2.6-0.9c0.7-0.3,1.1-1,0.8-1.8c-0.3-0.7-1-1.1-1.8-0.8l-2.5,0.9c-0.7,0.3-1.1,1-0.8,1.8
	C-212.5,433-211.7,433.3-211,433.1"/>
<path class="st2" d="M-223.6,427.8l-1.8,0.7c0.7,0.8,1.4,1.5,2.2,2.2l0.6-0.2c0.7-0.3,1.1-1.1,0.8-1.8S-222.9,427.5-223.6,427.8
	L-223.6,427.8z"/>
<path class="st2" d="M-160,414.5c-7.1,1.8-13.5,3.2-19.4,4.2l-23.1,8.3c-0.7,0.3-1.1,1-0.8,1.8c0.3,0.7,1,1.1,1.8,0.8l43.3-15.6
	L-160,414.5z"/>
<path class="st2" d="M-214.8,417.9l-0.5-0.3l-2.9,1c-0.7,0.3-1.1,1-0.8,1.8c0.3,0.7,1,1.1,1.8,0.8l0,0l5.9-2.1
	C-212.6,418.9-213.7,418.5-214.8,417.9z"/>
<path class="st2" d="M-199.1,420.7c-1.5,0-2.9,0-4.3-0.1l-14.4,5.2c-0.7,0.3-1.1,1.1-0.8,1.8c0.3,0.7,1.1,1.1,1.8,0.8l21.8-7.8
	C-196.5,420.6-197.8,420.7-199.1,420.7z"/>
<linearGradient id="SVGID_8_" gradientUnits="userSpaceOnUse" x1="-148.3234" y1="-1093.4351" x2="-147.3236" y2="-1093.4351" gradientTransform="matrix(105.82 -0.14 0.14 105.82 15631.0215 116085.3828)">
	<stop  offset="0" style="stop-color:#4F672F"/>
	<stop  offset="0.21" style="stop-color:#4F672F"/>
	<stop  offset="0.39" style="stop-color:#526B30"/>
	<stop  offset="0.56" style="stop-color:#5C7632"/>
	<stop  offset="0.73" style="stop-color:#6C8A35"/>
	<stop  offset="0.89" style="stop-color:#82A539"/>
	<stop  offset="1" style="stop-color:#95BB3D"/>
</linearGradient>
<path class="st9" d="M-111.7,382.5c-3.4-5.9-42.1,1.6-55.8,5c-26.7,6.7-50.7,19.3-49.5,23.7c0,0.1,0.1,0.2,0.1,0.3
	c0.2,0.5,0.5,0.9,0.8,1.3c0.1,0.2,0.3,0.3,0.5,0.5c1,0.9,2.1,1.6,3.4,2.1c3,1.2,7.4,1.9,13.1,1.9h0.1c9.3,0,22-1.8,38.2-6
	c1.8-0.4,3.4-0.9,5-1.3l0.5-0.1l2.5-0.7l1.8-0.5l1.1-0.3c1.3-0.4,2.5-0.8,3.7-1.2l2.4-0.8c0,0.1-0.1,0.2-0.1,0.3
	C-129.1,401.8-108.1,393.4-111.7,382.5z"/>
<g>
	<path class="st14" d="M-189.9,408.6c1.2,4.3,11.4,5.5,29.6,0.8c18.2-4.7,26.6-10.6,25.4-14.9c-1.2-4.3-11.1-5.6-29.3-0.9
		C-182.4,398.3-191,404.3-189.9,408.6"/>
	
		<linearGradient id="SVGID_9_" gradientUnits="userSpaceOnUse" x1="-120.5063" y1="-1108.0421" x2="-119.5065" y2="-1108.0421" gradientTransform="matrix(3.39 12.81 -12.81 3.39 -13951.8799 5685.8604)">
		<stop  offset="0" style="stop-color:#4F672F"/>
		<stop  offset="0.21" style="stop-color:#4F672F"/>
		<stop  offset="0.39" style="stop-color:#526B30"/>
		<stop  offset="0.56" style="stop-color:#5C7632"/>
		<stop  offset="0.73" style="stop-color:#6C8A35"/>
		<stop  offset="0.89" style="stop-color:#82A539"/>
		<stop  offset="1" style="stop-color:#95BB3D"/>
	</linearGradient>
	<path class="st10" d="M-160.2,409.4c15.9-4.1,24.3-9.1,25.4-13.2c-3.3-2.8-10.2-4.5-28.5,0.3c-15.9,4.2-24.4,9.8-25.4,13.9
		C-185.4,413.2-176.3,413.6-160.2,409.4z"/>
	<path class="st16" d="M-140.4,397.2c0.7,2.3-8.5,6.9-20.4,10.2c-11.9,3.3-22.1,4.1-22.8,1.8c-0.6-2.3,8.5-6.9,20.4-10.2
		C-151.2,395.7-141,394.9-140.4,397.2"/>
	<path class="st17" d="M-149.4,398.1c-4.3,0.2-8.6,0.9-12.7,2.2c-8.3,2.3-14.7,5.5-14.2,7.1c0.2,0.6,1.3,0.9,3.2,0.9
		c4.3-0.2,8.6-0.9,12.7-2.2c8.3-2.3,14.7-5.5,14.2-7.1C-146.4,398.4-147.6,398.1-149.4,398.1"/>
</g>
<path class="st14" d="M-167.5,387.5c13.1-3.3,49.4-10.3,55.2-5.6c-0.2-0.2-0.5-0.4-0.7-0.6c-1.3-0.9-2.7-1.6-4.2-2
	c-2.2-0.6-4.5-1.1-6.9-1.3c-0.8-0.1-1.6-0.2-2.3-0.2c-9.1-1.2-22.8,0.5-42,5.5c0,0-0.1,0-0.1,0c-6.4,1.6-12.7,3.5-18.9,5.7
	c-2.6,0.9-5,1.9-7.2,2.8c-1,0.4-2.1,0.9-3.1,1.3c-0.4,0.2-0.6,0.2-0.8,0.2c0,0.1,0,0.1,0,0.2c-4.1,1.8-7.9,3.9-11.6,6.5
	c-2.5,1.6-4.6,3.8-6.2,6.3c-0.6,1-1,2.2-1,3.4c0,0.1,0,0.3,0,0.4c0.1,0.3,0.1,0.6,0.2,0.9c0,0.1,0.1,0.2,0.1,0.3
	C-218.2,406.8-194.2,394.3-167.5,387.5z"/>
</svg>
