<svg id="Layer_1" data-name="Layer 1" xmlns="http://www.w3.org/2000/svg" viewBox="0 0 450 75"><defs><style>.cls-1{fill:#656565;}.cls-2{fill:#3f9c35;}.cls-3{fill:#0088ce;}.cls-4{fill:#92d400;}</style></defs><title>thorntail_RGB_450px_default</title><path class="cls-1" d="M80.71,64a10.07,10.07,0,0,0-1.16.76c-.41.3-.79.62-1.19.93-.18.15-.38.28-.58.42l0,.1,1.52.64c.64.29,1.28.6,1.93.87s1.08.37,1.6.61a8.4,8.4,0,0,0,3.84.8c.31,0,.43-.25.5-.48s-.12-.36-.25-.46A13.29,13.29,0,0,0,85.34,67a11.57,11.57,0,0,1-2.06-1.57,6.34,6.34,0,0,0-2.06-1.35C81.06,64,80.83,63.94,80.71,64Z"/><path class="cls-1" d="M68.38,66.9c-.24-.17-.51-.31-.74-.49s-.66-.59-1-.86-.63-.45-1-.71A7.51,7.51,0,0,0,64,66.3c-.13.16-.24.34-.38.49s-.2.33.09.5l2.35,1.31c.94.51,1.89,1,2.81,1.55a3.27,3.27,0,0,0,1.81.52,5.73,5.73,0,0,1,1.31,0,.75.75,0,0,0,.82-.27L72.39,70c-.11-.11-.21-.22-.31-.34a2.43,2.43,0,0,0-.31-.38c-.24-.19-.51-.33-.76-.5Z"/><path d="M63.83,14.61a8.73,8.73,0,0,0,.52.82c.19.25.45.45.63.7.42.59,1,.59,1.6.8.08,0,.26-.13.33-.24a.34.34,0,0,0-.1-.32,3.82,3.82,0,0,0-.64-.4,3.78,3.78,0,0,1-1.49-1.65,9.39,9.39,0,0,1-.71-1.7,1.81,1.81,0,0,1-.12-1.22L64.78,13a8.73,8.73,0,0,0,2.43,2.38.78.78,0,0,0,.56.2.62.62,0,0,0,.42-.37c0-.09,0-.34-.16-.45-.39-.41-.85-.76-1.22-1.2a17.57,17.57,0,0,1-1.13-1.55,11,11,0,0,1-.78-1.31,3.71,3.71,0,0,1-.45-2,3,3,0,0,0,0-.73,2.82,2.82,0,0,0-.18-.45l-.41.28a.2.2,0,0,0,0,.08,5,5,0,0,0-.31,2.24c.08.62.09.62-.29,1.07,0-.24.21-.47-.05-.72,0,.05-.09.08-.1.13a3.61,3.61,0,0,0,.39,3.16C63.56,14.09,63.68,14.35,63.83,14.61Z"/><path d="M66.05,8.49c0,.27,0,.55.09.81a2.36,2.36,0,0,0,.54,1.28.37.37,0,0,1,.1.25,1,1,0,0,0,.32.72,2.83,2.83,0,0,1,.42.56A5.31,5.31,0,0,0,69.07,14a6.77,6.77,0,0,0,1,.68.43.43,0,0,0,.68-.24c.13-.29-.06-.51-.25-.67A6.6,6.6,0,0,1,69,12.1c-.32-.49-.56-1-.84-1.55a3.47,3.47,0,0,1-.3-.52c-.28-.77-.52-1.54-.8-2.3-.18-.49-.41-1-.64-1.5-.14.11-.23.15-.3.22a1.32,1.32,0,0,0-.27,1.06C65.9,7.84,66,8.16,66.05,8.49Z"/><path d="M65.88,33.42a1.1,1.1,0,0,0-.06.49l-.09,1.4h0a.38.38,0,0,1,0,.1c.08.66.08.66.68.84,0,0,.1.07.14.08a.59.59,0,0,0,.29,0c.48-.2.52-.7.54-1.15a3.23,3.23,0,0,0-.53-1.68C66.66,33.11,66.08,33,65.88,33.42Z"/><path d="M79.58,32.8a.42.42,0,0,1,.09.25c0,.3.24.46.48.33.52-.28.68-.43.61-1.09l0-.37c0-.44-.07-.82-.57-1-.3-.11-.42-.11-.41.2a2,2,0,0,1-.3,1A.57.57,0,0,0,79.58,32.8Z"/><path class="cls-2" d="M56.47,54.09c.22-.33.45-.66.66-1a4.53,4.53,0,0,0,.32-.71c.13-.37.23-.75.38-1.11s.43-.82,0-1.3c0,0,0-.09,0-.13A6.43,6.43,0,0,0,56.32,48a17.93,17.93,0,0,0-1.5-1.09,6.21,6.21,0,0,1-1.9-2,12.85,12.85,0,0,0-.76-1.06l-.08,0c0,.11,0,.22,0,.34a5.77,5.77,0,0,1,.08.58c0,.26-.08.52-.09.79s0,.76,0,1.15a8.85,8.85,0,0,0,0,1c0,.63.14,1.26.19,1.89.06,1,.11,2,.15,2.92,0,.5,0,1,0,1.49.1.81.24,1.62.37,2.44.05.27.13.54.19.81.15.75.31,1.49.48,2.31l.06-.16a10.93,10.93,0,0,1,2.16-4.22A13.62,13.62,0,0,0,56.47,54.09Z"/><path class="cls-2" d="M86,46.36c0,.73-.06,1.42-.09,2.11,0,.49-.08,1-.09,1.46a7.19,7.19,0,0,0-.15,1.47c0,.1-.06.21-.07.31a1.51,1.51,0,0,0,0,.3l.17.05c.1-.25.19-.51.31-.76a8.1,8.1,0,0,0,.47-.93,13.63,13.63,0,0,0,.37-1.43,2.15,2.15,0,0,0-.21-1.4,9.21,9.21,0,0,0-.45-.81C86.17,46.61,86.09,46.5,86,46.36Z"/><path class="cls-3" d="M52.35,59.05c-.2-.91-.4-1.82-.58-2.73-.12-.59-.25-1.19-.34-1.78-.06-.42-.06-.84-.08-1.27,0-.93-.06-1.87-.12-2.81,0-.63-.13-1.26-.2-1.89a3.61,3.61,0,0,1-.08-.72,16,16,0,0,0-.18-3c-.07-.79-.11-1.58-.18-2.37a1.37,1.37,0,0,0-.19-.61c-.62-.89-1.26-1.77-1.9-2.64-.41-.56-.85-1.11-1.26-1.68-.23-.31-.41-.67-.64-1-.61-.82-1.21-1.65-1.86-2.44a23.15,23.15,0,0,0-1.82-2.36c-.14-.14-.24-.32-.37-.47s-.55-.56-.81-.86-.35-.49-.55-.72c-.34-.39-.72-.75-1.06-1.15-.58-.67-1.13-1.37-1.71-2-.43-.5-.89-1-1.32-1.48s-.71-1-1.1-1.39c-.59-.69-1.25-1.32-1.82-2a12.67,12.67,0,0,0-1.56-1.79c-.46-.4-.91-.82-1.36-1.25a15.76,15.76,0,0,0-1.68-1.79,8.25,8.25,0,0,1-1-.91c.09.61.68.72.93,1.21s.82.68,1.12,1.21.8.9,1.14,1.39c.76,1.1,1.52,2.19,2.19,3.34s1.35,2.58,2,3.87A8.12,8.12,0,0,0,37.34,29a30.85,30.85,0,0,1,2.22,2.59,3.24,3.24,0,0,1,.71,1.68l-.67,0a2,2,0,0,1-1.55-1.06A9,9,0,0,0,37.16,31c-.54-.57-1.16-1.06-1.68-1.65a29.81,29.81,0,0,0-2.36-2.54c-1.15-1.05-2.23-2.19-3.46-3.14a15.47,15.47,0,0,1-2.17-1.89,11,11,0,0,0-1.13-1.13,9.55,9.55,0,0,1-1.67-1.51,2.51,2.51,0,0,0-.52-.51,16.6,16.6,0,0,1-1.45-1.21,14.76,14.76,0,0,0-1.6-1.23c-.73-.56-1.44-1.14-2.18-1.68a25.76,25.76,0,0,0-2.18-1.45A16.42,16.42,0,0,0,13,11.56c.34.3.68.6,1,.88s.53.37.78.57.76.63,1.14.94c.13.11.29.17.42.27.44.34.88.68,1.31,1,.18.14.31.34.49.48s.42.21.6.37c.77.68,1.54,1.37,2.29,2.07s1.38,1.26,2,1.92a13.4,13.4,0,0,1,1.71,1.74c.36.51.83.94,1.23,1.42.23.27.4.59.62.86s.59.69.86,1c.83,1.09,1.65,2.17,2.46,3.28.49.68.94,1.4,1.42,2.1a13.06,13.06,0,0,0,.88,1.19c.21.24.52.39.73.63a4.21,4.21,0,0,1,.6.85.29.29,0,0,1-.28.44A10.93,10.93,0,0,1,32,33.2a10.21,10.21,0,0,1-1-.53c-1.2-.61-2.4-1.23-3.6-1.82-.64-.32-1.28-.63-1.93-.9s-1.27-.44-1.9-.71c-1-.42-1.93-.88-2.89-1.34-.55-.27-1.08-.57-1.63-.84-.8-.4-1.59-.81-2.4-1.18-1.18-.53-2.36-1.05-3.56-1.51a16.63,16.63,0,0,0-2.84-1c-.18,0-.36-.13-.54-.19l0,.08c.36.13.72.25,1.06.41.63.3,1.25.62,1.86.94l2.17,1.15c.35.19.71.34,1,.55.75.44,1.49.9,2.23,1.37,1.06.67,2.11,1.39,3.19,2,.69.41,1.31.94,2,1.35.45.27.88.58,1.31.89.71.51,1.43,1,2.12,1.54,1,.76,2,1.52,3,2.32.76.62,1.49,1.28,2.22,1.93l2.88,2.58c.22.2.42.44.65.62s.5.3.73.47c1,.78,2,1.54,3,2.35a26.57,26.57,0,0,1,2.55,2.31,34.63,34.63,0,0,1,2.39,3c.7.92,1.31,1.92,2,2.84s1.26,1.52,1.88,2.3S49,55.54,49.5,56.26c.63.94,1.2,1.93,1.82,2.88.39.6.84,1.17,1.26,1.76l.48.64c-.08-.3-.24-.56-.31-.83C52.59,60.16,52.47,59.6,52.35,59.05Z"/><path class="cls-1" d="M89.59,38.42a10.16,10.16,0,0,1-2-.39,11.73,11.73,0,0,0-2.07-.43c-.58-.11-1.16-.15-1.74-.26s-1.18-.27-1.77-.4a6.67,6.67,0,0,0-.88-.13c-.76,0-1.53-.1-2.29-.08-.39,0-.53.28-.48.7s.09.62.13.93l0,0c.12.26.26.51.36.78s.43.27.69.29h.09c.64,0,1.27.07,1.91.07.89,0,1.79-.06,2.68-.07a9.61,9.61,0,0,0,2.21-.08,16.71,16.71,0,0,1,2.36-.26,4,4,0,0,0,.86-.09c.19-.05.51-.24.49-.34C90.1,38.42,89.81,38.46,89.59,38.42Z"/><path d="M91,38a2.45,2.45,0,0,0-.65-.2l-1.92-.44-1.15-.27a3.06,3.06,0,0,1,.08-.7,3.49,3.49,0,0,0,.2-1.34,11.11,11.11,0,0,1,.19-1.48,15.3,15.3,0,0,0,0-3.45c-.06-.35-.1-.7-.18-1a6.53,6.53,0,0,0-.71-1.92c-.31-.5-.62-1-.94-1.48-.15-.22-.34-.42-.49-.64-.48-.66-.91-1.37-1.44-2-.75-.87-1.58-1.67-2.36-2.52-.57-.63-1.1-1.31-1.66-1.95a10.79,10.79,0,0,0-.9-.89,4.82,4.82,0,0,1-.55-.44c-.45-.52-.67-1.25-1.35-1.54,0,0-.07-.09-.1-.14a8.35,8.35,0,0,0-1.7-1.94,7.2,7.2,0,0,1-1.09-1.38c-.39-.57-.75-1.17-1.1-1.77a9.4,9.4,0,0,1-.65-1.26c-.2-.5-.34-1-.5-1.54-.11-.33-.23-.66-.31-1-.18-.8-.33-1.6-.5-2.4,0-.1-.15-.27-.2-.26a.44.44,0,0,0-.29.19,1.65,1.65,0,0,0-.11.45h0V4.25l-.1,0a5.36,5.36,0,0,0-.23.78c-.09.71-.15,1.42-.23,2.12,0,.12-.11.23-.11.35,0,.3.07.61.1.92,0,.1.09.24,0,.28a1,1,0,0,0-.11.76,18.37,18.37,0,0,0,.44,1.92.54.54,0,0,0,.27.32A.42.42,0,0,1,71,12a1.86,1.86,0,0,0,.13.46c.2.52.4,1,.62,1.54a2.1,2.1,0,0,0,.32.46,1.64,1.64,0,0,0,.3.29c.18.14.1.36.16.48a5.5,5.5,0,0,0,.67.79s.13.05.13.08c0,.34.37.53.55.65a15.41,15.41,0,0,1,2,1.8,1.54,1.54,0,0,0,.61.37c.35.11.39.15.2.45.24.18.49.35.72.54a6.85,6.85,0,0,1,1.57,1.33.36.36,0,0,0,.21.15,2.54,2.54,0,0,1,1.2,1,2.56,2.56,0,0,0,.54.55c.4.31.81.59,1.21.9a1.09,1.09,0,0,1,.21.26,1.88,1.88,0,0,0,.35.39A6.41,6.41,0,0,1,84.13,26c.17.22.29.49.45.72l1.27,1.8a3.17,3.17,0,0,1,.42.7c.23.71.43,1.42.59,2.14a6.22,6.22,0,0,1,.1,1.22c0,.67,0,1.34,0,2a4.65,4.65,0,0,1-.38,2.08c0,.08-.15.17-.22.16-.56,0-1.11-.11-1.66-.2s-1-.2-1.46-.27-1-.12-1.52-.18L81.08,36a3.11,3.11,0,0,0-2.52.12,2.23,2.23,0,0,0-1.2,1.69,10.65,10.65,0,0,0,.22,2,.31.31,0,0,0,.09.18,2.26,2.26,0,0,0,1.41.71c.92,0,1.84-.06,2.76-.08l2.9-.06h1a1.12,1.12,0,0,1,0,.31c-.18,1.26-.35,2.52-.56,3.76-.13.75-.34,1.47-.49,2.21-.08.42-.09.86-.15,1.29-.1.73-.21,1.46-.32,2.19a4.69,4.69,0,0,0-.11.54c0,.83-.07,1.67-.12,2.5s-.06,1.38-.15,2.06-.25,1.13-.36,1.7-.18,1-.25,1.53c0,.31-.06.63-.12.94s-.21.8-.27,1.22c-.13.89-.22,1.79-.34,2.69a.83.83,0,0,1-.17.32c-.59-.39-1.07-1-1.78-.62a10.09,10.09,0,0,0-1,.38A11.49,11.49,0,0,1,78,64.78c-.2.09-.32.33-.49.49s-.19.25-.31.28c-.74.19-1.49.37-2.24.52-.5.1-1,.15-1.54.21s-.8.08-1.2.09c-.56,0-1.12,0-1.68,0-.36,0-.72-.06-1.07-.09L69,66.21a.89.89,0,0,1-.33-.08c-.31-.22-.6-.46-.9-.68l-1.26-.87a.44.44,0,0,1-.13-.24c0-.33-.16-.38-.44-.24a10.47,10.47,0,0,0-2.08,1.54c-.21.17-.33.49-.69.43-.07,0-.23.2-.21.26.1.31-.11.43-.19.63a.48.48,0,0,1-.61.29l-.34-.07-2.37-.24a1.33,1.33,0,0,0-.28,0,4,4,0,0,1-2-.58,7.48,7.48,0,0,1-1.18-.7c-.31-.21-.7-.36-.85-.78-.23-.66-.44-1.33-.65-2a.45.45,0,0,1,0-.2c.1-.57.16-1.16.31-1.72a10,10,0,0,1,.94-2.55,15.52,15.52,0,0,1,1.76-2.54c.4-.45.73-1,1.1-1.45a.88.88,0,0,1,.22-.21,2.59,2.59,0,0,0,.82-1.43,4.59,4.59,0,0,0,.09-1.13,4.7,4.7,0,0,0-.21-2.16,2,2,0,0,0-.29-.48,3.22,3.22,0,0,0-.24-.28c-.34-.39-.64-.82-1-1.17s-1-.8-1.43-1.2L55,45.05l-.51-.46c-.33-.33-.68-.64-1-1A4.05,4.05,0,0,1,52.4,42a.22.22,0,0,0-.09-.13c-.36,0-.29-.33-.31-.55s0-.64-.07-1-.13-.65-.18-1c0-.15.06-.34,0-.45-.31-.54,0-1.08-.22-1.65a8.25,8.25,0,0,1-.19-2.12c0-.47,0-.94,0-1.41,0-.21.08-.42.07-.64s-.08-.75,0-1.11a10.28,10.28,0,0,1,.24-1.23c.14-.7.27-1.4.45-2.09.1-.4.28-.76.41-1.15A10.8,10.8,0,0,1,53,26.28a12.82,12.82,0,0,1,1.51-2.11,1.6,1.6,0,0,1,.35-.28c.27-.18.54-.37.81-.54a3.2,3.2,0,0,1,.63-.34,2,2,0,0,0,1-.59A6.55,6.55,0,0,1,59.11,21c.53-.37,1.13-.63,1.68-1s.94-.63,1.42-.94c.29-.18.6-.33.9-.5l1.1-.59c.1-.12.16-.24.25-.29a4.12,4.12,0,0,1,.52-.24l.89-.4,0-.08-.67-.24c0-.1-.06-.22-.23-.22a1.35,1.35,0,0,1-.28,0,2.7,2.7,0,0,0-1.78.4.25.25,0,0,1-.15,0,1.44,1.44,0,0,0-.46,0c-.62.19-1.24.39-1.85.61a16.67,16.67,0,0,0-2.1.83c-.8.43-1.55,1-2.31,1.48-.56.38-1.1.79-1.65,1.19l-1,.77A4.69,4.69,0,0,0,52,23.57c-.14.29-.11.67-.46.82,0,0,0,.07,0,.11a2.06,2.06,0,0,1-.16.37c-.12.19-.27.36-.39.55a2,2,0,0,0-.17.43,1.69,1.69,0,0,0-.19.41,2.47,2.47,0,0,1-.22.68c-.35.41-.21,1-.3,1.43s0,.73,0,1.09A4.51,4.51,0,0,0,50,31a10.33,10.33,0,0,1,0,1.25c.07.77.19,1.54.27,2.31,0,.37,0,.74,0,1.11a6.43,6.43,0,0,1,0,.76,5.66,5.66,0,0,0,0,1.84,10.33,10.33,0,0,1,.16,1.47l-.08,0-1-1.5c-.36-.58-.7-1.16-1.05-1.74l-1.09-1.79a7.1,7.1,0,0,0-.7-1.17c-.4-.44-.69-1-1.09-1.4-.21-.23-.45-.42-.65-.67s-.19-.24-.28-.37c-.2-.31-.38-.65-.61-.94-.41-.54-.86-1.06-1.29-1.58a3.47,3.47,0,0,0-.25-.29c-.27-.27-.56-.53-.82-.82s-.34-.55-.56-.79c-.37-.4-.78-.76-1.16-1.15-.21-.22-.39-.46-.58-.7a4.11,4.11,0,0,0-.53-.63.81.81,0,0,1-.34-.41c0-.11-.22-.18-.34-.27a1.31,1.31,0,0,1-.12-.11c-.25-.35-.48-.71-.75-1s-.72-.78-1-1.2a3.18,3.18,0,0,0-1-1s-.07-.11-.11-.16c-.2-.3-.3-.67-.64-.89a4.4,4.4,0,0,1-.64-.6c-.11.05-.25.07-.28-.22a.28.28,0,0,0-.09-.17c-.29-.23-.6-.45-.88-.7s-.73-.77-1.13-1.1-.9-.63-1.35-.94c-.25-.17-.5-.34-.76-.49s-.45-.34-.66-.35a.89.89,0,0,1-.71-.45.59.59,0,0,0-.61-.25.45.45,0,0,1-.22,0c-.15,0-.29-.1-.44-.15l.13-.13-.45-.16-.7-.34c-.37-.16-.71-.49-1.14-.37l-.21.05a.84.84,0,0,0,.12.23c.15.15.34.26.48.41L26.41,15a13,13,0,0,1,1.53,1.69c.1.15.15.32.25.46l1.24,1.61,1.79,2.34A22.78,22.78,0,0,1,32.6,22.9c.51.83.93,1.72,1.39,2.59a1.38,1.38,0,0,1,.08.2c-.42-.31-.85-.61-1.25-.93-.9-.74-1.8-1.5-2.7-2.26-.53-.45-1.05-.93-1.57-1.4-.91-.82-1.81-1.64-2.73-2.45-.64-.57-1.28-1.14-1.95-1.67-.86-.7-1.75-1.36-2.64-2-.71-.53-1.41-1.08-2.16-1.54a22.22,22.22,0,0,0-3.83-1.94c-.55-.21-1.1-.44-1.66-.63L12,10.3a2.81,2.81,0,0,1-1.39-.64s-.09,0-.14,0a4,4,0,0,1-.92-.13,14.16,14.16,0,0,1-1.29-.65c-.18-.09-.38-.16-.57-.24l-.06.1A1.6,1.6,0,0,0,7.9,9c.71.41,1.42.82,2.14,1.21a6,6,0,0,1,1.76,1.06,23.52,23.52,0,0,0,1.87,1.57c.41.34.8.72,1.2,1.07.69.59,1.4,1.16,2.08,1.77s1.44,1.29,2.13,2c.44.44.81,1,1.24,1.4.69.7,1.42,1.36,2.12,2.05.54.54,1.08,1.09,1.58,1.68.34.39.58.88.9,1.29s.85,1,1.27,1.49a29.85,29.85,0,0,1,2.43,3.14c.24.39.5.76.8,1.2l-1.54-.64c-.9-.38-1.81-.74-2.7-1.14-.67-.3-1.33-.66-2-1s-1.48-.62-2.21-.94c-1.29-.57-2.59-1.14-3.87-1.74-1-.45-2-.74-2.93-1.2a14.14,14.14,0,0,0-2.46-.8c-.73-.2-1.47-.34-2.21-.49A5.07,5.07,0,0,0,8.94,22L9,21.92c-.48,0-.95,0-1.43,0a4.25,4.25,0,0,1-.8-.07,4.83,4.83,0,0,1-.71-.22,4.5,4.5,0,0,0-1.64-.34,3.47,3.47,0,0,0-.44.1c.34.25.57.46.83.61.78.44,1.56.87,2.35,1.28,1.16.58,2.32,1.13,3.48,1.71s2.43,1.28,3.65,1.92c.55.29,1.12.56,1.65.89.94.59,1.86,1.21,2.78,1.83.69.46,1.37.93,2.05,1.41l2,1.48c.58.41,1.17.78,1.75,1.2s.93.73,1.39,1.1c.77.62,1.55,1.24,2.3,1.88,1.06.91,2.1,1.83,3.14,2.75s1.86,1.66,2.8,2.47c.45.4.93.76,1.4,1.13.68.51,1.36,1,2,1.53a9.16,9.16,0,0,1,1,.79c.48.46.92,1,1.37,1.46a14.83,14.83,0,0,1,1.12,1.26c.42.57.77,1.19,1.17,1.76.51.74,1,1.46,1.56,2.18.33.44.69.86,1,1.27.6.67,1.24,1.31,1.81,2s1,1.35,1.47,2a5.64,5.64,0,0,1,.46.63,10.74,10.74,0,0,0,1.45,2.14c.41.47.79,1,1.19,1.43.23.29.44.6.69.87.69.76,1.4,1.49,2.07,2.26a17.26,17.26,0,0,1,1.08,1.43,5.88,5.88,0,0,0,2.19,1.63,6.52,6.52,0,0,0,2.57.66,4.23,4.23,0,0,0,.5,0c.63,0,1.27,0,1.9,0s.81-.28,1.22-.52l.21.11a18.25,18.25,0,0,0,2.14,1.34c.93.43,1.84,1,2.78,1.38a5.4,5.4,0,0,0,2,.82,4.41,4.41,0,0,0,2-.27,1.18,1.18,0,0,0,.64-1.52,3.22,3.22,0,0,0-1.29-1.6,8.14,8.14,0,0,1-.8-.55l0-.12h1.39c.24,0,.49.06.72,0a9.38,9.38,0,0,0,1.18-.2c.49-.13,1-.31,1.46-.43s.95-.38,1.5-.15c.9.37,1.81.74,2.71,1.13s1.6.72,2.42,1a19.62,19.62,0,0,0,1.91.66,4.84,4.84,0,0,0,2.2.12,2.43,2.43,0,0,0,.73-.41,2.78,2.78,0,0,0,.41-.36.3.3,0,0,0,.1-.21,1.75,1.75,0,0,0-.2-.67,5.94,5.94,0,0,0-1.32-1.28,16.88,16.88,0,0,1-3.16-2.28c.34-.2.35-.23.4-.67a.83.83,0,0,1,0-.15c.13-.54.28-1.07.38-1.62s.16-1.11.28-1.65c.2-.92.46-1.82.66-2.75.11-.53.18-1.08.24-1.63s.11-1.41.18-2.11c0-.16.05-.41.15-.44.39-.15.55-.51.81-.79a3.3,3.3,0,0,0,1-1.48c.09-.38.3-.72.39-1.11s.13-1,.24-1.42A2.76,2.76,0,0,0,87.56,47c-.1-.27-.37-.47-.53-.73s-.47-.79-.69-1.19a.2.2,0,0,1,0-.15c0-.4.06-.8.09-1.21a15.2,15.2,0,0,0,.2-3.1c0-.21.08-.25.24-.28.7-.11,1.4-.22,2.09-.37.48-.1,1-.29,1.42-.43.08,0,.17,0,.25,0a6.31,6.31,0,0,0,.88-.23.63.63,0,0,0,.22-.91A2.42,2.42,0,0,0,91,38ZM52.58,60.9c-.42-.59-.87-1.16-1.26-1.76-.62-1-1.19-1.94-1.82-2.88-.47-.72-1-1.4-1.52-2.08s-1.29-1.5-1.88-2.3S44.79,50,44.09,49a34.63,34.63,0,0,0-2.39-3,26.57,26.57,0,0,0-2.55-2.31c-1-.81-2-1.57-3-2.35-.23-.17-.5-.29-.73-.47s-.43-.42-.65-.62L31.9,37.73c-.73-.65-1.46-1.31-2.22-1.93-1-.8-2-1.56-3-2.32-.69-.53-1.41-1-2.12-1.54-.43-.31-.86-.62-1.31-.89-.69-.41-1.31-.94-2-1.35-1.08-.65-2.13-1.37-3.19-2-.74-.47-1.48-.93-2.23-1.37-.34-.21-.7-.36-1-.55l-2.17-1.15c-.61-.32-1.23-.64-1.86-.94-.34-.16-.7-.28-1.06-.41l0-.08c.18.06.36.15.54.19a16.63,16.63,0,0,1,2.84,1c1.2.46,2.38,1,3.56,1.51.81.37,1.6.78,2.4,1.18.55.27,1.08.57,1.63.84,1,.46,1.92.92,2.89,1.34.63.27,1.28.45,1.9.71s1.29.58,1.93.9c1.2.59,2.4,1.21,3.6,1.82a10.21,10.21,0,0,0,1,.53,10.93,10.93,0,0,0,1.37.44.29.29,0,0,0,.28-.44,4.21,4.21,0,0,0-.6-.85c-.21-.24-.52-.39-.73-.63a13.06,13.06,0,0,1-.88-1.19c-.48-.7-.93-1.42-1.42-2.1-.81-1.11-1.63-2.19-2.46-3.28-.27-.35-.58-.68-.86-1s-.39-.59-.62-.86c-.4-.48-.87-.91-1.23-1.42a13.4,13.4,0,0,0-1.71-1.74c-.66-.66-1.35-1.29-2-1.92s-1.52-1.39-2.29-2.07c-.18-.16-.41-.23-.6-.37s-.31-.34-.49-.48c-.43-.35-.87-.69-1.31-1-.13-.1-.29-.16-.42-.27-.38-.31-.76-.64-1.14-.94s-.53-.37-.78-.57-.69-.58-1-.88a16.42,16.42,0,0,1,3.73,1.49,25.76,25.76,0,0,1,2.18,1.45c.74.54,1.45,1.12,2.18,1.68a14.76,14.76,0,0,1,1.6,1.23,16.6,16.6,0,0,0,1.45,1.21,2.51,2.51,0,0,1,.52.51,9.55,9.55,0,0,0,1.67,1.51,11,11,0,0,1,1.13,1.13,15.47,15.47,0,0,0,2.17,1.89c1.23.95,2.31,2.09,3.46,3.14a29.81,29.81,0,0,1,2.36,2.54c.52.59,1.14,1.08,1.68,1.65a9,9,0,0,1,.89,1.15A2,2,0,0,0,39.6,33.2l.67,0a3.24,3.24,0,0,0-.71-1.68A30.85,30.85,0,0,0,37.34,29,8.12,8.12,0,0,1,36,26.89c-.67-1.29-1.3-2.61-2-3.87s-1.43-2.24-2.19-3.34c-.34-.49-.85-.88-1.14-1.39s-.88-.73-1.12-1.21-.84-.6-.93-1.21a8.25,8.25,0,0,0,1,.91,15.76,15.76,0,0,1,1.68,1.79c.45.43.9.85,1.36,1.25a12.67,12.67,0,0,1,1.56,1.79c.57.71,1.23,1.34,1.82,2,.39.44.72.94,1.1,1.39s.89,1,1.32,1.48c.58.68,1.13,1.38,1.71,2,.34.4.72.76,1.06,1.15.2.23.35.5.55.72s.54.57.81.86.23.33.37.47a23.15,23.15,0,0,1,1.82,2.36c.65.79,1.25,1.62,1.86,2.44.23.31.41.67.64,1,.41.57.85,1.12,1.26,1.68.64.87,1.28,1.75,1.9,2.64a1.37,1.37,0,0,1,.19.61c.07.79.11,1.58.18,2.37a16,16,0,0,1,.18,3,3.61,3.61,0,0,0,.08.72c.07.63.16,1.26.2,1.89.06.94.08,1.88.12,2.81,0,.43,0,.85.08,1.27.09.59.22,1.19.34,1.78.18.91.38,1.82.58,2.73.12.55.24,1.11.4,1.66.07.27.23.53.31.83Zm1-1.44-.06.16c-.17-.82-.33-1.56-.48-2.31-.06-.27-.14-.54-.19-.81-.13-.82-.27-1.63-.37-2.44,0-.49,0-1,0-1.49,0-1-.09-2-.15-2.92,0-.63-.15-1.26-.19-1.89a8.85,8.85,0,0,1,0-1c0-.39,0-.77,0-1.15s.08-.53.09-.79a5.77,5.77,0,0,0-.08-.58c0-.12,0-.23,0-.34l.08,0a12.85,12.85,0,0,1,.76,1.06,6.21,6.21,0,0,0,1.9,2A17.93,17.93,0,0,1,56.32,48a6.43,6.43,0,0,1,1.46,1.89s0,.1,0,.13c.43.48.16.88,0,1.3s-.25.74-.38,1.11a4.53,4.53,0,0,1-.32.71c-.21.34-.44.67-.66,1a13.62,13.62,0,0,1-.78,1.15A10.93,10.93,0,0,0,53.53,59.46Zm18.24,9.78a2.43,2.43,0,0,1,.31.38c.1.12.2.23.31.34l.45.48a.75.75,0,0,1-.82.27,5.73,5.73,0,0,0-1.31,0,3.27,3.27,0,0,1-1.81-.52c-.92-.56-1.87-1-2.81-1.55l-2.35-1.31c-.29-.17-.29-.26-.09-.5s.25-.33.38-.49a7.51,7.51,0,0,1,1.6-1.46c.37.26.7.47,1,.71s.67.58,1,.86.5.32.74.49L71,68.74C71.26,68.91,71.53,69.05,71.77,69.24Zm11.51-3.81A11.57,11.57,0,0,0,85.34,67,13.29,13.29,0,0,1,87,68.2c.13.1.28.36.25.46s-.19.47-.5.48a8.4,8.4,0,0,1-3.84-.8c-.52-.24-1.07-.39-1.6-.61s-1.29-.58-1.93-.87l-1.52-.64,0-.1c.2-.14.4-.27.58-.42.4-.31.78-.63,1.19-.93A10.07,10.07,0,0,1,80.71,64c.12-.07.35,0,.51.07A6.34,6.34,0,0,1,83.28,65.43Zm3.41-17.89a2.15,2.15,0,0,1,.21,1.4,13.63,13.63,0,0,1-.37,1.43,8.1,8.1,0,0,1-.47.93c-.12.25-.21.51-.31.76L85.58,52a1.51,1.51,0,0,1,0-.3c0-.1.08-.21.07-.31a7.19,7.19,0,0,1,.15-1.47c0-.49.06-1,.09-1.46,0-.69.06-1.38.09-2.11.1.14.18.25.25.37A9.21,9.21,0,0,1,86.69,47.54Zm3-8.51a4,4,0,0,1-.86.09,16.71,16.71,0,0,0-2.36.26,9.61,9.61,0,0,1-2.21.08c-.89,0-1.79.06-2.68.07-.64,0-1.27,0-1.91-.07h-.09c-.26,0-.54.11-.69-.29s-.24-.52-.36-.78l0,0c0-.31-.09-.62-.13-.93s.09-.7.48-.7c.76,0,1.53,0,2.29.08a6.67,6.67,0,0,1,.88.13c.59.13,1.18.29,1.77.4s1.16.15,1.74.26a11.73,11.73,0,0,1,2.07.43,10.16,10.16,0,0,0,2,.39c.22,0,.51,0,.55.27C90.16,38.79,89.84,39,89.65,39Z"/><path class="cls-4" d="M64.93,16.54c.17,0,.26.12.23.22l.67.24,0,.08-.89.4a4.12,4.12,0,0,0-.52.24c-.09.05-.15.17-.25.29l-1.1.59c-.3.17-.61.32-.9.5-.48.31-.93.65-1.42.94s-1.15.6-1.68,1a6.55,6.55,0,0,0-1.82,1.41,2,2,0,0,1-1,.59,3.2,3.2,0,0,0-.63.34c-.27.17-.54.36-.81.54a1.6,1.6,0,0,0-.35.28A12.82,12.82,0,0,0,53,26.28a10.8,10.8,0,0,0-.53,1.26c-.13.39-.31.75-.41,1.15-.18.69-.31,1.39-.45,2.09A10.28,10.28,0,0,0,51.35,32c0,.36,0,.74,0,1.11s-.07.43-.07.64c0,.47,0,.94,0,1.41a8.25,8.25,0,0,0,.19,2.12c.19.57-.09,1.11.22,1.65.07.11,0,.3,0,.45,0,.33.14.65.18,1s0,.64.07,1,0,.51.31.55a.22.22,0,0,1,.09.13,4.05,4.05,0,0,0,1.14,1.59c.31.35.66.66,1,1l.51.46,1.52,1.29c.48.4,1,.77,1.43,1.2s.67.78,1,1.17a3.22,3.22,0,0,1,.24.28,2,2,0,0,1,.29.48,4.7,4.7,0,0,1,.21,2.16,4.59,4.59,0,0,1-.09,1.13,2.59,2.59,0,0,1-.82,1.43.88.88,0,0,0-.22.21c-.37.49-.7,1-1.1,1.45a15.52,15.52,0,0,0-1.76,2.54,10,10,0,0,0-.94,2.55c-.15.56-.21,1.15-.31,1.72a.45.45,0,0,0,0,.2c.21.66.42,1.33.65,2,.15.42.54.57.85.78a7.48,7.48,0,0,0,1.18.7,4,4,0,0,0,2,.58,1.33,1.33,0,0,1,.28,0l2.37.24.34.07a.48.48,0,0,0,.61-.29c.08-.2.29-.32.19-.63,0-.06.14-.27.21-.26.36.06.48-.26.69-.43a10.47,10.47,0,0,1,2.08-1.54c.28-.14.39-.09.44.24a.44.44,0,0,0,.13.24l1.26.87c.3.22.59.46.9.68a.89.89,0,0,0,.33.08l.47.06c.35,0,.71.08,1.07.09.56,0,1.12,0,1.68,0,.4,0,.8-.05,1.2-.09s1-.11,1.54-.21c.75-.15,1.5-.33,2.24-.52.12,0,.21-.18.31-.28s.29-.4.49-.49a11.49,11.49,0,0,0,1.59-1.18,10.09,10.09,0,0,1,1-.38c.71-.36,1.19.23,1.78.62a.83.83,0,0,0,.17-.32c.12-.9.21-1.8.34-2.69.06-.42.2-.81.27-1.22s.07-.63.12-.94c.07-.51.15-1,.25-1.53s.28-1.12.36-1.7.11-1.37.15-2.06.07-1.67.12-2.5a4.69,4.69,0,0,1,.11-.54c.11-.73.22-1.46.32-2.19.06-.43.07-.87.15-1.29.15-.74.36-1.46.49-2.21.21-1.24.38-2.5.56-3.76a1.12,1.12,0,0,0,0-.31h-1l-2.9.06c-.92,0-1.84,0-2.76.08A2.26,2.26,0,0,1,77.67,40a.31.31,0,0,1-.09-.18,10.65,10.65,0,0,1-.22-2,2.23,2.23,0,0,1,1.2-1.69A3.11,3.11,0,0,1,81.08,36l.66.11c.51.06,1,.1,1.52.18s1,.2,1.46.27,1.1.15,1.66.2c.07,0,.18-.08.22-.16A4.65,4.65,0,0,0,87,34.55c0-.67,0-1.34,0-2a6.22,6.22,0,0,0-.1-1.22c-.16-.72-.36-1.43-.59-2.14a3.17,3.17,0,0,0-.42-.7l-1.27-1.8c-.16-.23-.28-.5-.45-.72a6.41,6.41,0,0,0-1.47-1.47,1.88,1.88,0,0,1-.35-.39,1.09,1.09,0,0,0-.21-.26c-.4-.31-.81-.59-1.21-.9a2.56,2.56,0,0,1-.54-.55,2.54,2.54,0,0,0-1.2-1,.36.36,0,0,1-.21-.15A6.85,6.85,0,0,0,77.37,20c-.23-.19-.48-.36-.72-.54.19-.3.15-.34-.2-.45a1.54,1.54,0,0,1-.61-.37,15.41,15.41,0,0,0-2-1.8c-.18-.12-.5-.31-.55-.65,0,0-.09,0-.13-.08a5.5,5.5,0,0,1-.67-.79c-.06-.12,0-.34-.16-.48a1.64,1.64,0,0,1-.3-.29,2.1,2.1,0,0,1-.32-.46c-.22-.51-.42-1-.62-1.54A1.86,1.86,0,0,1,71,12a.42.42,0,0,0-.28-.37.54.54,0,0,1-.27-.32A18.37,18.37,0,0,1,70,9.43a1,1,0,0,1,.11-.76s0-.18,0-.28c0-.31-.08-.62-.1-.92,0-.12.1-.23.11-.35,0-.37.08-.74.12-1.11a8.35,8.35,0,0,0-3.52.72c.15.34.3.67.42,1,.28.76.52,1.53.8,2.3a3.47,3.47,0,0,0,.3.52c.28.52.52,1.06.84,1.55a6.6,6.6,0,0,0,1.49,1.67c.19.16.38.38.25.67a.43.43,0,0,1-.68.24,6.77,6.77,0,0,1-1-.68,5.31,5.31,0,0,1-1.55-1.89,2.83,2.83,0,0,0-.42-.56,1,1,0,0,1-.32-.72.37.37,0,0,0-.1-.25,2.36,2.36,0,0,1-.54-1.28c-.07-.26,0-.54-.09-.81s-.15-.65-.19-1c0-.11,0-.21,0-.32a4.71,4.71,0,0,0-1.4,1.6,3.83,3.83,0,0,0,.45,2,11,11,0,0,0,.78,1.31,17.57,17.57,0,0,0,1.13,1.55c.37.44.83.79,1.22,1.2.11.11.21.36.16.45a.62.62,0,0,1-.42.37.78.78,0,0,1-.56-.2A8.73,8.73,0,0,1,64.78,13l-.93-1.64A1.81,1.81,0,0,0,64,12.62a9.39,9.39,0,0,0,.71,1.7A3.78,3.78,0,0,0,66.17,16a3.82,3.82,0,0,1,.64.4.34.34,0,0,1,.1.32c-.07.11-.25.27-.33.24-.51-.2-1.09-.21-1.51-.68a2.17,2.17,0,0,1-.23.3ZM79.45,32.11a2,2,0,0,0,.3-1c0-.31.11-.31.41-.2.5.18.56.56.57,1l0,.37c.07.66-.09.81-.61,1.09-.24.13-.44,0-.48-.33a.42.42,0,0,0-.09-.25A.57.57,0,0,1,79.45,32.11ZM66.91,33.53a3.23,3.23,0,0,1,.53,1.68c0,.45-.06.95-.54,1.15a.59.59,0,0,1-.29,0s-.09-.06-.14-.08c-.6-.18-.6-.18-.68-.84a.38.38,0,0,0,0-.1h0l.09-1.4a1.1,1.1,0,0,1,.06-.49C66.08,33,66.66,33.11,66.91,33.53Z"/><path d="M128.24,20.16h-14v-3.6h31.88v3.6h-14V59h-3.83Z"/><path d="M154.73,16.56h3.82V35.28h23V16.56h3.82V59h-3.82V38.88h-23V59h-3.82Z"/><path d="M196.23,37.8a24.84,24.84,0,0,1,1.56-8.94,21.42,21.42,0,0,1,4.35-7,19.72,19.72,0,0,1,6.69-4.65,22.9,22.9,0,0,1,17.22,0,19.62,19.62,0,0,1,6.69,4.65,21.25,21.25,0,0,1,4.35,7.05,24.84,24.84,0,0,1,1.56,8.94,25.08,25.08,0,0,1-1.56,9,21.19,21.19,0,0,1-4.35,7.08,19.27,19.27,0,0,1-6.69,4.62,23.29,23.29,0,0,1-17.22,0,19.37,19.37,0,0,1-6.69-4.62,21.35,21.35,0,0,1-4.35-7.08A25.08,25.08,0,0,1,196.23,37.8Zm3.82,0a21.89,21.89,0,0,0,1.22,7.38,17.58,17.58,0,0,0,3.48,5.94,16,16,0,0,0,5.47,4,18.82,18.82,0,0,0,14.44,0,16,16,0,0,0,5.47-4,17.58,17.58,0,0,0,3.48-5.94,22.93,22.93,0,0,0,0-14.76,17.58,17.58,0,0,0-3.48-5.94,16,16,0,0,0-5.47-4,18.82,18.82,0,0,0-14.44,0,16,16,0,0,0-5.47,4,17.58,17.58,0,0,0-3.48,5.94A21.89,21.89,0,0,0,200.05,37.8Z"/><path d="M249.55,16.56h10.78c.54,0,1.28,0,2.2.06a21.84,21.84,0,0,1,3,.36,18,18,0,0,1,3.3,1,9.35,9.35,0,0,1,3,1.92,10.11,10.11,0,0,1,2.2,3.18,11.3,11.3,0,0,1,.87,4.68,11,11,0,0,1-1,5A9.55,9.55,0,0,1,271.37,36,10.52,10.52,0,0,1,268,37.8a21.11,21.11,0,0,1-3.53.84L276.39,59H272L260.51,38.88h-7.13V59h-3.83Zm3.83,18.72h8.11a13,13,0,0,0,4.9-.78,8.2,8.2,0,0,0,2.93-1.92,6.3,6.3,0,0,0,1.42-2.46,8,8,0,0,0,0-4.8,6.3,6.3,0,0,0-1.42-2.46,8.2,8.2,0,0,0-2.93-1.92,13,13,0,0,0-4.9-.78h-8.11Z"/><path d="M286.24,16.56h4.93l25,37.2h.11V16.56h3.83V59h-4.93l-25-37.2h-.12V59h-3.82Z"/><path d="M341.59,20.16h-14v-3.6h31.87v3.6h-14V59h-3.83Z"/><path d="M376.72,16.56h3.94L397.93,59h-4.29l-4.46-11.28H367.44L362.81,59h-4Zm1.79,4.32L369,44.16h18.84Z"/><path d="M406.16,16.56H410V59h-3.83Z"/><path d="M423.55,16.56h3.82V55.44H446.5V59H423.55Z"/></svg>